<svg width="422" height="422" viewBox="0 0 422 422" fill="none" xmlns="http://www.w3.org/2000/svg">
<g clip-path="url(#clip0_2001_2)">
<path d="M0 421.333H421.333V-5.62668e-05H0V421.333Z" fill="#FFBA08"/>
<mask id="mask0_2001_2" style="mask-type:luminance" maskUnits="userSpaceOnUse" x="0" y="0" width="422" height="422">
<path d="M0 -5.62668e-05H421.333V421.333H0V-5.62668e-05Z" fill="white"/>
</mask>
<g mask="url(#mask0_2001_2)">
<path d="M210.667 78.4564C216.584 78.4564 221.205 83.9924 219.693 90.1191C218.868 93.4604 216.119 96.1511 212.756 96.8831C206.695 98.2044 201.351 93.6031 201.351 87.7724C201.351 82.6471 205.517 78.4564 210.667 78.4564ZM282.653 269.246V269.094C282.653 302.668 259.568 330.951 228.436 338.878V203.723C237.009 176.423 249.055 176.423 253.077 176.423C266.656 176.423 277.696 187.487 277.696 201.066C277.696 214.643 266.656 225.683 253.077 225.683V261.246C288.167 261.246 316.324 231.055 312.989 195.319C310.163 165.036 284.401 141.34 253.991 140.868C244.788 140.726 236.164 142.74 228.436 146.752V127.022C243.379 120.244 253.772 105.206 253.772 87.7724C253.772 64.0164 234.447 44.6671 210.667 44.6671C186.887 44.6671 167.561 64.0164 167.561 87.7724C167.561 105.206 177.955 120.244 192.897 127.022V198.599C189.296 210.544 181.124 228.348 164.652 225.348C152.768 223.183 143.545 212.95 143.639 200.872C143.743 187.383 154.741 176.423 168.256 176.423V140.862C133.185 140.862 104.995 171.064 108.347 206.838C111.183 237.108 136.948 260.762 167.348 261.238C176.525 261.382 185.121 259.346 192.897 255.235V338.878C161.765 330.951 138.68 304.555 138.68 270.98V269.246H103.119V269.234C103.119 325.243 148.764 373.46 204.689 376.503C266.684 379.878 318.215 330.394 318.215 269.094V269.246H282.653Z" fill="#12100E"/>
</g>
</g>
<defs>
<clipPath id="clip0_2001_2">
<rect width="421.333" height="421.333" fill="white"/>
</clipPath>
</defs>
</svg>
